<?xml version="1.0" standalone="no"?>
<!DOCTYPE svg PUBLIC "-//W3C//DTD SVG 20010904//EN"
 "http://www.w3.org/TR/2001/REC-SVG-20010904/DTD/svg10.dtd">
<svg version="1.0" xmlns="http://www.w3.org/2000/svg"
 width="300.000000pt" height="300.000000pt" viewBox="0 0 300.000000 300.000000"
 preserveAspectRatio="xMidYMid meet">
<metadata>
Created by potrace 1.10, written by Peter Selinger 2001-2011
</metadata>
<g transform="translate(0.000000,300.000000) scale(0.100000,-0.100000)"
fill="#000000" stroke="none">
<path d="M1333 2680 c-96 -20 -197 -101 -243 -195 -22 -43 -25 -64 -25 -155 0
-90 3 -112 23 -152 33 -66 92 -130 146 -159 34 -18 46 -30 46 -47 0 -12 7 -39
15 -59 24 -57 20 -69 -37 -103 -29 -18 -73 -53 -97 -79 l-43 -46 -62 68 c-33
38 -99 126 -146 195 -57 85 -92 128 -106 130 -18 3 -84 -48 -84 -65 0 -10 47
-89 103 -173 45 -67 150 -199 206 -257 l21 -22 -27 -78 c-23 -69 -27 -97 -31
-244 -3 -145 -1 -178 17 -250 29 -115 90 -236 156 -308 l55 -59 0 -88 c0 -152
38 -259 90 -259 49 0 90 107 90 234 0 92 6 72 13 -43 8 -119 36 -191 76 -191
54 0 81 87 81 257 l0 99 44 43 c178 176 238 547 137 840 l-21 59 68 76 c37 41
120 132 186 201 142 150 148 161 115 196 -41 44 -56 48 -82 22 -62 -65 -289
-308 -317 -341 l-32 -37 -62 58 c-35 32 -77 64 -95 72 -31 12 -32 15 -27 52 3
21 9 56 12 78 5 34 12 44 44 60 20 10 57 38 82 62 130 127 145 335 33 481 -75
98 -208 151 -322 127z m190 -57 c176 -79 237 -312 124 -480 -34 -51 -113 -111
-158 -120 -25 -5 -26 -7 -18 -36 7 -24 5 -40 -9 -67 -9 -19 -16 -51 -14 -70 3
-32 8 -38 52 -58 30 -14 71 -47 108 -87 l59 -64 20 27 c31 42 125 145 250 276
l114 119 25 -25 25 -24 -123 -130 c-111 -117 -233 -253 -266 -295 -10 -14 -9
-26 7 -67 39 -100 54 -205 48 -351 -3 -77 -12 -162 -21 -196 -27 -100 -92
-220 -150 -279 l-53 -53 0 -114 c0 -187 -40 -281 -82 -194 -9 18 -16 76 -19
150 l-5 121 -32 -4 -33 -4 -4 -107 c-5 -113 -27 -186 -58 -186 -8 0 -24 18
-35 40 -16 32 -20 64 -22 165 l-3 126 -61 62 c-43 45 -72 87 -99 145 -59 126
-75 207 -74 377 1 128 4 155 29 235 15 50 28 95 29 101 0 6 -40 60 -91 120
-80 95 -130 165 -218 304 l-23 36 33 22 33 21 74 -114 c64 -99 224 -304 238
-304 3 0 22 23 43 50 38 50 132 119 162 119 21 0 20 73 -1 106 -11 16 -15 37
-11 63 4 35 3 39 -28 50 -86 31 -160 114 -189 211 -21 71 -20 114 4 192 33
107 111 182 221 212 67 19 125 13 202 -21z"/>
<path d="M1416 2607 c4 -12 2 -17 -6 -15 -7 2 -15 -4 -17 -12 -4 -13 -3 -13 6
0 6 8 11 11 11 6 0 -6 5 -5 12 2 9 9 9 15 -1 25 -10 10 -11 8 -5 -6z"/>
<path d="M1460 2616 c0 -2 8 -10 18 -17 15 -13 16 -12 3 4 -13 16 -21 21 -21
13z"/>
<path d="M1511 2588 c-1 -20 14 -24 25 -6 4 6 3 8 -4 4 -5 -3 -13 0 -15 6 -3
8 -6 6 -6 -4z"/>
<path d="M1262 2576 c7 -8 17 -12 22 -9 4 3 2 9 -5 14 -22 13 -31 11 -17 -5z"/>
<path d="M1305 2580 c-3 -5 -1 -10 4 -10 6 0 11 5 11 10 0 6 -2 10 -4 10 -3 0
-8 -4 -11 -10z"/>
<path d="M1346 2582 c-2 -4 -1 -14 4 -22 7 -11 9 -9 7 8 -1 24 -3 26 -11 14z"/>
<path d="M1430 2569 c-6 -11 -9 -25 -6 -32 2 -7 5 -4 5 6 1 9 5 17 9 17 5 0 9
7 9 15 0 20 -4 19 -17 -6z"/>
<path d="M1545 2546 c4 -33 23 -66 39 -66 12 0 51 -36 82 -75 13 -18 13 -17 0
12 -9 17 -20 35 -26 38 -6 4 -8 10 -6 14 3 4 0 13 -6 21 -8 12 -9 12 -4 -2 3
-10 1 -18 -4 -18 -6 0 -10 5 -10 10 0 6 -6 10 -14 10 -8 0 -18 4 -21 10 -3 5
0 8 7 7 7 -2 10 -2 5 0 -4 3 -4 10 0 16 4 8 1 7 -9 -1 -13 -10 -17 -10 -21 2
-3 8 -1 16 5 18 6 2 4 9 -5 16 -12 10 -14 8 -12 -12z"/>
<path d="M1280 2550 c-18 -12 -2 -12 25 0 13 6 15 9 5 9 -8 0 -22 -4 -30 -9z"/>
<path d="M1373 2543 c0 -8 6 -9 19 -2 10 5 18 11 18 12 0 2 -8 3 -18 3 -10 0
-19 -6 -19 -13z"/>
<path d="M1501 2528 c13 -25 2 -40 -24 -33 -17 5 -19 4 -7 -4 8 -6 10 -11 4
-11 -14 0 -57 -41 -50 -47 3 -3 19 6 36 21 17 14 37 26 44 26 8 0 12 13 12 33
0 19 -6 34 -13 34 -9 0 -9 -6 -2 -19z"/>
<path d="M1200 2520 c-9 -6 -10 -10 -3 -10 6 0 15 5 18 10 8 12 4 12 -15 0z"/>
<path d="M1313 2515 c1 -11 7 -23 12 -27 6 -5 3 -8 -7 -8 -9 0 -24 -3 -34 -7
-14 -5 -16 -3 -11 13 6 16 5 17 -5 4 -7 -8 -22 -22 -32 -30 -18 -14 -19 -13
-13 3 4 11 3 16 -4 12 -5 -4 -8 -12 -6 -18 2 -6 -9 -22 -24 -35 -16 -12 -26
-29 -23 -36 3 -8 1 -17 -5 -21 -7 -3 -11 2 -11 14 0 11 -4 22 -9 25 -4 3 -6
-6 -3 -19 3 -18 0 -24 -9 -22 -8 2 -11 2 -6 0 4 -3 5 -9 2 -13 -3 -5 0 -12 6
-16 7 -4 9 -3 5 4 -3 6 -2 13 4 17 5 3 10 1 10 -4 0 -23 17 -9 28 22 19 52 54
79 111 85 46 4 51 2 89 -36 35 -35 41 -38 45 -21 4 14 0 19 -13 19 -11 0 -22
5 -25 10 -3 6 1 10 9 10 8 0 17 4 20 8 2 4 -4 8 -15 8 -10 0 -19 -4 -19 -9 0
-4 -5 -5 -11 -1 -8 5 -4 13 12 27 l24 19 -28 -17 c-16 -9 -30 -15 -31 -13 -1
2 -9 19 -19 38 -9 20 -16 26 -14 15z"/>
<path d="M1341 2508 c16 -31 16 -31 22 -14 4 10 -2 20 -14 27 -19 10 -20 9 -8
-13z"/>
<path d="M1530 2505 c0 -8 4 -15 10 -15 5 0 7 7 4 15 -4 8 -8 15 -10 15 -2 0
-4 -7 -4 -15z"/>
<path d="M1164 2482 c-8 -7 -14 -19 -14 -25 0 -6 7 -2 15 10 9 12 22 20 29 17
8 -3 16 -2 19 3 9 14 -35 10 -49 -5z"/>
<path d="M1179 2443 c-13 -16 -12 -17 4 -4 9 7 17 15 17 17 0 8 -8 3 -21 -13z"/>
<path d="M1137 2429 c7 -7 15 -10 18 -7 3 3 -2 9 -12 12 -14 6 -15 5 -6 -5z"/>
<path d="M1498 2423 c-68 -42 -52 -162 22 -178 43 -9 84 10 102 48 42 88 -46
179 -124 130z m27 -31 c19 9 30 7 50 -6 14 -9 25 -23 25 -32 0 -24 -19 -54
-35 -54 -8 0 -15 -5 -15 -10 0 -10 -9 -4 -46 29 -10 9 -13 23 -9 38 4 16 2 22
-4 18 -7 -4 -8 1 -4 11 4 10 8 13 10 7 3 -9 11 -9 28 -1z"/>
<path d="M1244 2392 c-28 -22 -44 -54 -44 -86 0 -28 59 -96 83 -96 9 0 23 -20
33 -47 27 -75 54 -95 129 -96 63 -1 125 27 125 56 0 6 6 18 14 26 7 9 16 25
20 36 6 20 1 21 -110 23 -92 2 -114 0 -108 -10 5 -10 4 -11 -7 0 -7 6 -20 12
-28 12 -11 0 -10 -4 5 -15 15 -12 16 -16 5 -24 -10 -6 -6 -11 15 -19 17 -6 22
-11 12 -11 -9 -1 -21 -8 -26 -17 -8 -15 -10 -15 -15 0 -4 9 -1 16 5 16 7 0 3
6 -8 14 -18 14 -18 15 -1 22 17 6 15 9 -12 26 -25 16 -29 23 -21 38 15 27 13
30 -19 30 -41 0 -59 56 -28 86 17 17 61 29 53 15 -4 -6 -2 -11 3 -11 6 0 11
-7 11 -16 0 -8 5 -12 11 -8 6 3 3 -8 -6 -26 -12 -23 -14 -35 -6 -43 8 -8 11
-6 11 7 0 10 4 14 12 10 8 -5 9 -2 5 10 -4 9 -3 15 2 11 6 -3 14 2 19 11 6 10
12 12 16 6 3 -5 -1 -13 -10 -16 -10 -4 -13 -13 -9 -25 3 -11 1 -22 -4 -26 -7
-4 -8 1 -5 12 4 12 -4 7 -22 -12 -34 -36 -17 -48 25 -17 78 58 30 172 -72 172
-18 0 -42 -8 -53 -18z m3 -30 c-10 -10 -17 -25 -18 -33 0 -11 -2 -11 -6 -1 -5
12 23 52 35 52 3 0 -2 -8 -11 -18z m106 1 c-3 -7 -6 -13 -8 -13 -2 0 -5 6 -8
13 -3 8 1 14 8 14 7 0 11 -6 8 -14z m26 -20 c-7 -10 -14 -20 -16 -22 -1 -2 -1
6 0 18 1 11 8 21 15 21 12 0 12 -3 1 -17z m-129 -87 c-1 -6 -6 -1 -13 12 -7
12 -17 19 -22 15 -4 -4 -5 -2 0 6 7 12 10 11 22 -4 7 -11 13 -24 13 -29z m50
-8 c0 -4 -5 -8 -11 -8 -5 0 -7 -4 -4 -10 3 -5 4 -10 1 -10 -3 0 -10 8 -15 18
-7 14 -6 18 10 18 10 0 19 -4 19 -8z m141 -69 c8 -13 13 -5 10 15 -1 5 5 4 13
-3 9 -7 23 -11 31 -7 9 3 13 2 10 -4 -3 -6 -1 -10 5 -10 6 0 8 -4 5 -10 -3 -5
-11 -10 -16 -10 -6 0 -7 5 -4 10 3 6 1 10 -4 10 -16 0 -13 -18 4 -28 12 -6 14
-14 6 -33 -7 -18 -10 -20 -12 -6 -1 9 -3 22 -4 27 -1 6 -3 13 -4 16 0 3 -6 2
-11 -1 -7 -4 -6 -13 1 -27 7 -13 7 -18 1 -14 -6 4 -19 -2 -29 -13 -14 -15 -22
-17 -33 -10 -12 9 -12 10 3 5 11 -3 16 -2 12 4 -3 6 -12 10 -19 10 -8 0 -19 7
-26 15 -10 12 -9 15 7 15 10 0 28 7 39 15 16 13 16 14 2 9 -10 -3 -18 -1 -18
5 0 6 5 11 10 11 6 0 10 5 10 12 0 6 -7 4 -18 -5 -26 -24 -51 -22 -26 2 22 21
42 21 55 0z m136 -1 c13 15 13 15 3 -5 -6 -13 -15 -23 -20 -23 -6 0 -9 -3 -8
-7 4 -14 -23 -54 -33 -48 -14 9 -11 25 6 25 17 0 21 35 5 45 -5 3 -10 11 -10
16 0 6 10 3 22 -5 19 -14 23 -14 35 2z m-47 -34 c0 -8 -5 -12 -10 -9 -6 4 -8
11 -5 16 9 14 15 11 15 -7z"/>
<path d="M1455 2160 c-3 -5 -1 -10 4 -10 6 0 11 5 11 10 0 6 -2 10 -4 10 -3 0
-8 -4 -11 -10z"/>
<path d="M1440 2131 c0 -6 4 -13 10 -16 6 -3 7 1 4 9 -7 18 -14 21 -14 7z"/>
<path d="M1410 2121 c0 -5 7 -12 16 -15 14 -5 15 -4 4 9 -14 17 -20 19 -20 6z"/>
<path d="M1126 2312 c-2 -4 4 -9 15 -9 11 -1 17 2 14 8 -7 11 -22 12 -29 1z"/>
<path d="M1140 2282 c14 -6 17 -17 12 -46 -1 -5 -10 -2 -19 5 -17 13 -17 13
-3 -6 8 -11 24 -30 35 -42 l21 -21 -2 31 c-2 48 -21 87 -41 86 -15 0 -15 -2
-3 -7z m26 -69 c-10 -10 -19 5 -10 18 6 11 8 11 12 0 2 -7 1 -15 -2 -18z"/>
<path d="M1652 2250 c-24 -32 -29 -54 -11 -48 9 3 42 78 35 78 -1 0 -12 -13
-24 -30z"/>
<path d="M1417 2257 c-3 -9 -2 -19 4 -23 15 -9 18 -2 9 20 -6 17 -7 18 -13 3z"/>
<path d="M1190 2201 c0 -5 6 -11 13 -14 9 -3 9 -9 -1 -26 -7 -13 -8 -21 -2
-21 6 0 13 7 17 16 4 11 8 12 13 4 4 -7 10 -8 13 -3 4 6 -7 20 -23 32 -17 12
-30 17 -30 12z"/>
<path d="M1268 2153 c6 -2 12 -11 12 -18 0 -8 4 -16 9 -19 5 -4 8 2 6 11 -2
10 -4 21 -4 26 -1 4 -9 7 -18 6 -11 0 -13 -3 -5 -6z"/>
<path d="M1251 2111 c-10 -6 -9 -10 5 -15 20 -8 25 -4 16 11 -4 7 -13 9 -21 4z"/>
<path d="M1294 2080 c0 -13 4 -16 10 -10 7 7 7 13 0 20 -6 6 -10 3 -10 -10z"/>
<path d="M1316 2065 c-9 -26 -7 -32 5 -12 6 10 9 21 6 23 -2 3 -7 -2 -11 -11z"/>
<path d="M1345 2049 c-4 -6 -5 -12 -2 -15 2 -3 7 2 10 11 7 17 1 20 -8 4z"/>
<path d="M2035 2011 c-3 -5 -2 -12 3 -15 5 -3 9 1 9 9 0 17 -3 19 -12 6z"/>
<path d="M1374 1986 c-3 -9 -10 -16 -16 -16 -5 0 -6 5 -2 12 4 7 3 8 -5 4 -14
-9 -5 -26 14 -26 13 0 29 29 20 38 -2 3 -7 -3 -11 -12z"/>
<path d="M1406 1983 c-6 -14 -5 -15 5 -6 7 7 10 15 7 18 -3 3 -9 -2 -12 -12z"/>
<path d="M1415 1960 c-7 -11 22 -26 32 -16 4 3 -1 6 -11 6 -9 0 -14 5 -11 10
3 6 4 10 1 10 -3 0 -8 -5 -11 -10z"/>
<path d="M1390 1946 c0 -8 4 -17 9 -20 5 -4 7 3 4 14 -6 23 -13 26 -13 6z"/>
<path d="M1375 1906 c10 -14 19 -26 22 -26 7 0 -17 39 -28 46 -6 3 -3 -5 6
-20z"/>
<path d="M1370 1861 c0 -6 5 -13 12 -17 6 -4 8 -3 4 4 -3 5 0 13 6 15 8 3 6 6
-4 6 -10 1 -18 -3 -18 -8z"/>
<path d="M903 1825 c0 -8 4 -15 9 -15 4 0 8 4 8 9 0 6 -4 12 -8 15 -5 3 -9 -1
-9 -9z"/>
<path d="M1375 1820 c-3 -5 -3 -10 2 -10 4 0 1 -5 -7 -10 -8 -5 -10 -10 -5
-10 6 0 17 5 25 10 11 7 11 10 2 10 -7 0 -10 5 -7 10 3 6 4 10 1 10 -3 0 -8
-4 -11 -10z"/>
<path d="M1375 1769 c-4 -6 -5 -12 -2 -15 2 -3 7 2 10 11 7 17 1 20 -8 4z"/>
<path d="M1440 1741 c0 -6 4 -13 10 -16 6 -3 7 1 4 9 -7 18 -14 21 -14 7z"/>
<path d="M1254 1728 c-4 -7 -3 -8 4 -4 7 4 12 1 12 -8 0 -9 5 -16 10 -16 7 0
7 6 0 20 -12 23 -16 24 -26 8z"/>
<path d="M1356 1722 c-2 -4 -1 -14 4 -22 7 -11 9 -9 7 8 -1 24 -3 26 -11 14z"/>
<path d="M1539 1706 c6 -7 9 -15 7 -17 -2 -2 7 -5 20 -5 32 -2 30 1 -7 20 -22
11 -28 12 -20 2z"/>
<path d="M1270 1680 c0 -5 5 -10 11 -10 5 0 7 5 4 10 -3 6 -8 10 -11 10 -2 0
-4 -4 -4 -10z"/>
<path d="M1388 1683 c7 -3 16 -2 19 1 4 3 -2 6 -13 5 -11 0 -14 -3 -6 -6z"/>
<path d="M1300 1666 c-6 -8 -18 -12 -26 -9 -8 3 -14 3 -14 0 0 -15 31 -13 46
4 9 10 15 19 12 19 -3 0 -11 -6 -18 -14z"/>
<path d="M1364 1651 c-1 -14 1 -20 3 -13 3 6 8 10 12 8 4 -3 8 1 8 9 0 26 -22
23 -23 -4z"/>
<path d="M1450 1662 c6 -13 14 -21 18 -18 3 4 -2 14 -12 24 -18 16 -18 16 -6
-6z"/>
<path d="M1483 1673 c9 -2 14 -9 11 -15 -4 -7 -2 -8 4 -4 20 12 13 26 -10 25
-18 -1 -19 -2 -5 -6z"/>
<path d="M1516 1653 c-6 -14 -5 -15 5 -6 7 7 10 15 7 18 -3 3 -9 -2 -12 -12z"/>
<path d="M1536 1633 c-6 -14 -5 -15 5 -6 7 7 10 15 7 18 -3 3 -9 -2 -12 -12z"/>
<path d="M1060 1631 c0 -6 4 -12 8 -15 5 -3 9 1 9 9 0 8 -4 15 -9 15 -4 0 -8
-4 -8 -9z"/>
<path d="M1430 1620 c6 -11 13 -20 16 -20 2 0 0 9 -6 20 -6 11 -13 20 -16 20
-2 0 0 -9 6 -20z"/>
<path d="M1315 1610 c3 -5 11 -10 16 -10 6 0 7 5 4 10 -3 6 -11 10 -16 10 -6
0 -7 -4 -4 -10z"/>
<path d="M1470 1615 c0 -2 9 -9 19 -15 14 -7 22 -7 27 2 4 6 3 8 -4 4 -6 -3
-13 -2 -17 4 -6 10 -25 14 -25 5z"/>
<path d="M1611 1613 c-1 -6 -4 -20 -7 -30 -5 -17 -5 -17 6 0 6 10 9 23 6 30
-3 9 -5 9 -5 0z"/>
<path d="M1640 1601 c0 -5 7 -12 16 -15 14 -5 15 -4 4 9 -14 17 -20 19 -20 6z"/>
<path d="M1238 1589 c6 -7 12 -17 12 -22 0 -5 -6 -5 -12 1 -10 8 -13 1 -13
-28 -1 -21 2 -37 6 -34 4 2 6 12 5 21 -2 10 6 24 16 33 18 15 18 15 -4 29 -18
10 -20 10 -10 0z"/>
<path d="M1295 1590 c3 -5 11 -10 16 -10 6 0 7 5 4 10 -3 6 -11 10 -16 10 -6
0 -7 -4 -4 -10z"/>
<path d="M1396 1576 c3 -9 13 -16 22 -16 8 0 13 1 11 3 -2 1 -12 9 -22 16 -15
12 -17 12 -11 -3z"/>
<path d="M1185 1569 c-5 -8 -4 -10 3 -5 7 4 12 3 12 -3 0 -5 -6 -12 -12 -14
-10 -4 -10 -6 -1 -6 17 -1 27 19 15 31 -6 6 -12 6 -17 -3z"/>
<path d="M1545 1571 c-3 -5 0 -13 6 -17 7 -4 9 -3 5 4 -3 5 0 13 6 15 9 4 10
6 1 6 -6 1 -14 -3 -18 -8z"/>
<path d="M1290 1562 c0 -4 10 -9 22 -9 18 -2 20 0 8 7 -18 12 -30 13 -30 2z"/>
<path d="M1506 1563 c-4 -5 -12 -8 -17 -8 -5 0 -9 -4 -8 -10 1 -5 6 -9 11 -7
6 2 8 -5 4 -15 -5 -13 -4 -15 4 -7 6 6 12 20 15 32 4 24 3 26 -9 15z"/>
<path d="M1642 1554 c-14 -16 -5 -18 17 -5 7 5 9 11 5 14 -5 3 -15 -1 -22 -9z"/>
<path d="M1316 1528 c3 -5 10 -6 15 -3 13 9 11 12 -6 12 -8 0 -12 -4 -9 -9z"/>
<path d="M1429 1518 c-11 -21 -11 -22 4 -10 13 11 17 10 26 -5 6 -10 10 -13
10 -8 0 6 -6 18 -14 28 -13 18 -14 18 -26 -5z"/>
<path d="M1344 1519 c-3 -6 -1 -16 5 -22 9 -9 10 -7 5 7 -6 16 -4 18 10 13 10
-4 15 -3 11 3 -8 13 -22 13 -31 -1z"/>
<path d="M1396 1514 c-23 -23 -20 -30 4 -9 11 10 20 20 20 22 0 7 -9 2 -24
-13z"/>
<path d="M1671 1504 c0 -11 3 -14 6 -6 3 7 2 16 -1 19 -3 4 -6 -2 -5 -13z"/>
<path d="M1261 1501 c-8 -6 -9 -11 -3 -15 6 -3 14 -1 17 5 9 14 2 20 -14 10z"/>
<path d="M1475 1486 c-5 -6 -11 -20 -13 -31 -2 -15 2 -13 14 8 16 30 16 43 -1
23z"/>
<path d="M1163 1483 c9 -2 15 -8 13 -12 -3 -4 1 -8 9 -8 11 0 12 4 4 14 -6 7
-19 12 -28 12 -13 -1 -13 -2 2 -6z"/>
<path d="M1536 1478 c3 -5 10 -6 15 -3 13 9 11 12 -6 12 -8 0 -12 -4 -9 -9z"/>
<path d="M1230 1469 c0 -5 5 -7 10 -4 6 3 10 8 10 11 0 2 -4 4 -10 4 -5 0 -10
-5 -10 -11z"/>
<path d="M1383 1465 c0 -8 4 -12 9 -9 5 3 6 10 3 15 -9 13 -12 11 -12 -6z"/>
<path d="M1500 1476 c0 -2 7 -7 16 -10 8 -3 12 -2 9 4 -6 10 -25 14 -25 6z"/>
<path d="M1357 1455 c-4 -8 -3 -16 1 -19 4 -3 9 4 9 15 2 23 -3 25 -10 4z"/>
<path d="M1113 1443 c8 -13 -17 -35 -29 -25 -4 4 -3 0 4 -9 6 -9 10 -19 7 -22
-3 -4 -2 -5 1 -3 3 2 4 6 2 9 -1 3 5 14 15 25 14 15 15 22 6 28 -7 4 -10 3 -6
-3z"/>
<path d="M1510 1435 c0 -14 30 -42 30 -29 0 5 5 1 11 -8 5 -10 15 -18 21 -18
7 0 0 13 -15 28 -15 16 -25 31 -22 34 3 2 -2 5 -10 5 -8 0 -15 -6 -15 -12z"/>
<path d="M1305 1431 c-3 -5 0 -13 6 -17 7 -4 9 -3 5 4 -3 5 0 13 6 15 9 4 10
6 1 6 -6 1 -14 -3 -18 -8z"/>
<path d="M1465 1420 c-4 -7 -2 -17 4 -23 8 -8 11 -7 11 4 0 12 2 12 10 -1 5
-8 10 -10 10 -4 0 19 -27 37 -35 24z"/>
<path d="M1604 1419 c-4 -7 -3 -9 4 -5 5 3 12 0 15 -6 2 -7 7 -10 11 -7 4 3 0
12 -8 18 -11 9 -16 9 -22 0z"/>
<path d="M1696 1422 c-3 -5 1 -9 9 -9 8 0 12 4 9 9 -3 4 -7 8 -9 8 -2 0 -6 -4
-9 -8z"/>
<path d="M1133 1408 c-13 -22 -13 -42 0 -29 10 10 19 41 12 41 -2 0 -7 -6 -12
-12z"/>
<path d="M1350 1416 c0 -2 7 -7 16 -10 8 -3 12 -2 9 4 -6 10 -25 14 -25 6z"/>
<path d="M1169 1405 c-1 -3 -2 -8 -3 -12 -1 -5 -5 -15 -11 -23 -8 -13 -7 -13
8 -1 15 12 17 11 17 -7 0 -11 -7 -25 -15 -32 -8 -7 -15 -9 -15 -6 0 4 -7 0
-16 -8 -8 -9 -20 -13 -26 -10 -7 4 -8 2 -4 -4 5 -9 14 -8 34 2 29 14 56 11 46
-6 -5 -7 -2 -8 6 -3 11 7 10 10 -1 19 -17 12 -8 39 24 70 10 10 15 21 12 24
-3 4 -10 0 -14 -7 -6 -9 -11 -10 -15 -2 -7 11 -25 15 -27 6z m26 -15 c3 -5 2
-10 -4 -10 -5 0 -13 5 -16 10 -3 6 -2 10 4 10 5 0 13 -4 16 -10z"/>
<path d="M1420 1400 c8 -5 20 -10 25 -10 6 0 3 5 -5 10 -8 5 -19 10 -25 10 -5
0 -3 -5 5 -10z"/>
<path d="M1654 1394 c-18 -14 -18 -15 4 -4 12 6 22 13 22 15 0 8 -5 6 -26 -11z"/>
<path d="M1250 1390 c0 -5 7 -7 15 -4 8 4 15 8 15 10 0 2 -7 4 -15 4 -8 0 -15
-4 -15 -10z"/>
<path d="M1386 1392 c-3 -5 1 -9 9 -9 8 0 12 4 9 9 -3 4 -7 8 -9 8 -2 0 -6 -4
-9 -8z"/>
<path d="M1340 1370 c0 -11 4 -20 9 -20 5 0 7 9 4 20 -3 11 -7 20 -9 20 -2 0
-4 -9 -4 -20z"/>
<path d="M1595 1381 c-3 -5 -2 -12 3 -15 5 -3 9 1 9 9 0 17 -3 19 -12 6z"/>
<path d="M1445 1370 c-3 -5 -12 -7 -19 -4 -8 3 -16 1 -20 -4 -3 -5 5 -8 17 -7
14 1 24 -5 29 -19 5 -16 6 -12 5 12 -1 35 -3 37 -12 22z"/>
<path d="M1079 1369 c-6 -28 -3 -46 6 -46 12 0 13 32 2 43 -4 4 -7 5 -8 3z"/>
<path d="M1240 1360 c-9 -6 -10 -10 -3 -10 6 0 15 5 18 10 8 12 4 12 -15 0z"/>
<path d="M1502 1340 c-18 -29 -15 -38 4 -12 9 13 14 25 12 27 -2 2 -9 -5 -16
-15z"/>
<path d="M1205 1340 c3 -5 8 -10 11 -10 2 0 4 5 4 10 0 6 -5 10 -11 10 -5 0
-7 -4 -4 -10z"/>
<path d="M1533 1344 c4 -4 2 -13 -5 -21 -17 -20 -5 -22 14 -2 15 16 15 18 0
24 -9 3 -13 3 -9 -1z"/>
<path d="M1700 1340 c0 -5 5 -10 11 -10 5 0 7 5 4 10 -3 6 -8 10 -11 10 -2 0
-4 -4 -4 -10z"/>
<path d="M1578 1323 c7 -3 16 -2 19 1 4 3 -2 6 -13 5 -11 0 -14 -3 -6 -6z"/>
<path d="M1304 1308 c-4 -6 -3 -8 3 -5 5 3 22 -1 38 -9 27 -14 30 -13 49 8
l21 22 -21 -17 c-24 -20 -38 -22 -28 -4 4 6 4 9 0 5 -5 -4 -19 -3 -32 2 -15 6
-26 5 -30 -2z"/>
<path d="M1466 1305 c-3 -9 -11 -13 -17 -9 -8 5 -9 3 -4 -5 6 -10 11 -9 23 3
9 8 13 18 10 21 -3 3 -8 -1 -12 -10z"/>
<path d="M1695 1313 c3 -3 -2 -18 -12 -32 -13 -20 -13 -23 -1 -14 8 7 17 11
20 8 2 -3 4 4 3 15 -1 11 -4 22 -8 25 -4 3 -5 2 -2 -2z"/>
<path d="M1209 1293 c-13 -17 -13 -17 6 -3 11 8 22 16 24 17 2 2 0 3 -6 3 -6
0 -17 -8 -24 -17z"/>
<path d="M1611 1294 c0 -11 3 -14 6 -6 3 7 2 16 -1 19 -3 4 -6 -2 -5 -13z"/>
<path d="M1495 1290 c-3 -5 -5 -10 -3 -11 33 -8 38 -7 27 7 -14 17 -16 17 -24
4z"/>
<path d="M1140 1280 c0 -5 5 -10 11 -10 5 0 7 5 4 10 -3 6 -8 10 -11 10 -2 0
-4 -4 -4 -10z"/>
<path d="M1306 1273 c-6 -14 -5 -15 5 -6 7 7 10 15 7 18 -3 3 -9 -2 -12 -12z"/>
<path d="M1040 1275 c0 -2 6 -8 13 -14 10 -8 14 -7 14 2 0 8 -6 14 -14 14 -7
0 -13 -1 -13 -2z"/>
<path d="M1085 1270 c-2 -3 -1 -11 3 -17 5 -6 13 -4 24 6 16 16 16 17 -3 17
-11 0 -22 -3 -24 -6z"/>
<path d="M1331 1264 c0 -11 3 -14 6 -6 3 7 2 16 -1 19 -3 4 -6 -2 -5 -13z"/>
<path d="M1446 1262 c12 -13 18 -14 21 -4 4 10 8 10 21 0 15 -12 16 -11 3 5
-9 12 -17 14 -26 7 -7 -6 -16 -6 -23 0 -7 6 -5 2 4 -8z"/>
<path d="M1559 1272 c0 -4 -2 -18 -5 -32 -3 -18 -2 -21 5 -10 5 8 8 17 5 21
-2 4 4 9 13 11 17 3 17 4 1 10 -10 4 -18 4 -19 0z"/>
<path d="M1630 1276 c0 -2 7 -9 15 -16 9 -7 15 -8 15 -2 0 5 -7 12 -15 16 -8
3 -15 4 -15 2z"/>
<path d="M1196 1262 c-3 -5 1 -9 9 -9 8 0 12 4 9 9 -3 4 -7 8 -9 8 -2 0 -6 -4
-9 -8z"/>
<path d="M1359 1253 c-13 -16 -12 -17 4 -4 16 13 21 21 13 21 -2 0 -10 -8 -17
-17z"/>
<path d="M1164 1249 c-3 -6 -2 -15 3 -20 5 -5 9 -1 9 11 0 23 -2 24 -12 9z"/>
<path d="M1597 1252 c-3 -4 3 -18 14 -31 10 -13 19 -19 19 -13 0 5 -7 15 -15
22 -8 7 -12 16 -9 21 3 5 3 9 0 9 -3 0 -7 -3 -9 -8z"/>
<path d="M1631 1243 c7 -12 15 -20 18 -17 3 2 -3 12 -13 22 -17 16 -18 16 -5
-5z"/>
<path d="M1697 1239 c7 -7 15 -10 18 -7 3 3 -2 9 -12 12 -14 6 -15 5 -6 -5z"/>
<path d="M1483 1221 c0 -11 5 -18 9 -15 4 3 5 11 1 19 -7 21 -12 19 -10 -4z"/>
<path d="M1098 1219 c6 -9 8 -20 4 -25 -4 -5 3 0 16 10 12 11 22 21 22 24 0 2
-6 0 -13 -7 -10 -8 -17 -7 -27 2 -12 10 -12 9 -2 -4z"/>
<path d="M1250 1221 c0 -5 5 -13 10 -16 6 -3 10 -2 10 4 0 5 -4 13 -10 16 -5
3 -10 2 -10 -4z"/>
<path d="M1327 1218 c-2 -8 2 -23 10 -33 13 -19 14 -18 7 10 -8 37 -10 39 -17
23z"/>
<path d="M1350 1216 c0 -8 4 -17 8 -20 4 -2 8 4 8 15 0 10 -4 19 -8 19 -4 0
-8 -6 -8 -14z"/>
<path d="M1296 1211 c-3 -5 1 -14 9 -21 11 -9 12 -16 5 -25 -7 -9 -6 -16 3
-24 11 -9 14 -6 13 13 -1 13 -7 30 -14 38 -6 8 -9 18 -5 21 3 4 4 7 0 7 -3 0
-8 -4 -11 -9z"/>
<path d="M1394 1204 c-18 -15 -18 -15 2 -5 12 6 25 7 29 3 5 -4 5 -1 1 6 -9
15 -8 15 -32 -4z"/>
<path d="M1671 1204 c0 -11 3 -14 6 -6 3 7 2 16 -1 19 -3 4 -6 -2 -5 -13z"/>
<path d="M1695 1209 c-11 -16 -1 -19 13 -3 7 8 8 14 3 14 -5 0 -13 -5 -16 -11z"/>
<path d="M1051 1188 c5 -10 11 -18 12 -18 2 0 3 8 3 18 0 10 -6 19 -13 19 -8
0 -9 -6 -2 -19z"/>
<path d="M1190 1199 c0 -5 5 -7 10 -4 6 3 10 8 10 11 0 2 -4 4 -10 4 -5 0 -10
-5 -10 -11z"/>
<path d="M1572 1190 l-23 -19 30 -16 c29 -14 30 -14 24 2 -6 16 -5 17 13 3 18
-14 18 -14 4 4 -13 18 -13 19 1 14 9 -3 22 -2 30 4 11 8 11 9 -3 4 -10 -3 -24
1 -32 9 -18 18 -16 18 -44 -5z m27 -16 c-6 -7 -15 -11 -21 -8 -5 3 -4 12 3 20
6 7 15 11 21 8 5 -3 4 -12 -3 -20z"/>
<path d="M1265 1180 c3 -5 8 -10 11 -10 2 0 4 5 4 10 0 6 -5 10 -11 10 -5 0
-7 -4 -4 -10z"/>
<path d="M1460 1180 c0 -5 5 -10 11 -10 5 0 7 5 4 10 -3 6 -8 10 -11 10 -2 0
-4 -4 -4 -10z"/>
<path d="M1170 1164 c-18 -10 -20 -14 -8 -14 9 0 20 5 23 10 4 6 11 7 17 4 7
-4 8 -2 4 4 -4 7 -8 12 -9 11 -1 -1 -13 -7 -27 -15z"/>
<path d="M1370 1176 c0 -2 7 -7 16 -10 8 -3 12 -2 9 4 -6 10 -25 14 -25 6z"/>
<path d="M1430 1176 c0 -2 8 -10 18 -17 15 -13 16 -12 3 4 -13 16 -21 21 -21
13z"/>
<path d="M1053 1146 c-4 -5 -1 -6 5 -2 6 3 13 -3 17 -14 3 -11 11 -20 18 -20
8 0 8 3 -1 12 -13 13 -16 32 -4 24 4 -2 14 -1 21 4 9 5 2 7 -19 6 -17 0 -34
-5 -37 -10z"/>
<path d="M1345 1150 c3 -5 8 -10 11 -10 2 0 4 5 4 10 0 6 -5 10 -11 10 -5 0
-7 -4 -4 -10z"/>
<path d="M1486 1146 c3 -9 11 -16 18 -17 6 0 19 -2 28 -4 10 -2 21 2 25 8 3 7
3 9 -2 5 -4 -4 -14 0 -22 10 -12 16 -13 16 -6 -2 6 -18 5 -18 -21 -1 -23 16
-26 16 -20 1z"/>
<path d="M1375 1140 c-3 -5 -1 -10 4 -10 6 0 11 5 11 10 0 6 -2 10 -4 10 -3 0
-8 -4 -11 -10z"/>
<path d="M1415 1140 c3 -5 8 -10 11 -10 2 0 4 5 4 10 0 6 -5 10 -11 10 -5 0
-7 -4 -4 -10z"/>
<path d="M1675 1140 c3 -5 8 -10 11 -10 2 0 4 5 4 10 0 6 -5 10 -11 10 -5 0
-7 -4 -4 -10z"/>
<path d="M1706 1142 c-2 -4 2 -16 10 -27 8 -10 14 -14 14 -8 0 7 -5 15 -11 19
-8 4 -7 9 2 15 10 6 10 9 2 9 -6 0 -14 -3 -17 -8z"/>
<path d="M1446 1123 c-6 -14 -5 -15 5 -6 7 7 10 15 7 18 -3 3 -9 -2 -12 -12z"/>
<path d="M1209 1113 c-24 -29 -36 -51 -15 -28 10 11 24 19 31 17 8 -1 16 2 20
8 4 6 -1 7 -11 3 -12 -4 -15 -3 -10 5 11 18 1 14 -15 -5z"/>
<path d="M1117 1097 c-10 -10 -17 -20 -15 -22 6 -6 40 24 37 32 -2 5 -12 0
-22 -10z"/>
<path d="M1330 1106 c7 -7 13 -7 20 0 6 6 3 10 -10 10 -13 0 -16 -4 -10 -10z"/>
<path d="M1555 1111 c-3 -6 -11 -9 -16 -6 -15 10 -10 -2 8 -16 9 -8 14 -9 10
-2 -4 6 -1 13 5 16 7 2 10 7 7 11 -4 4 -10 2 -14 -3z"/>
<path d="M1350 1085 c-7 -8 -17 -12 -23 -8 -6 3 -7 1 -3 -5 6 -10 -4 -16 -25
-14 -3 1 -6 -5 -6 -12 0 -7 6 -13 14 -13 7 0 11 2 9 5 -3 2 10 17 27 33 18 15
29 29 26 29 -4 0 -12 -7 -19 -15z"/>
<path d="M1466 1088 c3 -4 11 -5 19 -1 21 7 19 12 -4 10 -11 0 -18 -5 -15 -9z"/>
<path d="M1265 1080 c-3 -5 -1 -10 4 -10 6 0 11 5 11 10 0 6 -2 10 -4 10 -3 0
-8 -4 -11 -10z"/>
<path d="M1599 1076 c6 -7 7 -16 3 -21 -4 -4 3 -2 15 6 25 15 24 18 -7 24 -17
3 -19 1 -11 -9z"/>
<path d="M1693 1079 c1 -6 -4 -14 -12 -17 -8 -3 -11 0 -7 7 4 6 2 11 -3 11 -6
0 -11 -3 -11 -8 0 -4 -13 -13 -30 -20 -33 -15 -41 -32 -12 -27 9 1 16 8 15 14
-2 6 4 12 12 12 49 4 60 2 60 -9 0 -14 10 -20 19 -11 4 3 0 12 -8 18 -8 7 -12
19 -9 27 3 8 0 14 -6 14 -6 0 -10 -5 -8 -11z"/>
<path d="M1540 1059 c0 -5 5 -7 10 -4 6 3 10 8 10 11 0 2 -4 4 -10 4 -5 0 -10
-5 -10 -11z"/>
<path d="M1080 1056 c0 -2 7 -7 16 -10 8 -3 12 -2 9 4 -6 10 -25 14 -25 6z"/>
<path d="M1186 1052 c-14 -13 -5 -22 13 -13 18 10 31 6 31 -11 0 -5 -4 -6 -10
-3 -5 3 -10 1 -10 -4 0 -6 5 -11 10 -11 16 0 12 -18 -5 -23 -11 -4 -10 -5 2
-3 21 1 28 51 10 63 -16 10 -34 12 -41 5z"/>
<path d="M1450 1052 c0 -5 7 -9 15 -9 8 0 12 4 9 9 -3 4 -9 8 -15 8 -5 0 -9
-4 -9 -8z"/>
<path d="M1505 1050 c-3 -5 -1 -10 4 -10 6 0 11 5 11 10 0 6 -2 10 -4 10 -3 0
-8 -4 -11 -10z"/>
<path d="M1136 1031 c-4 -5 3 -7 14 -4 23 6 26 13 6 13 -8 0 -17 -4 -20 -9z"/>
<path d="M1354 1023 c1 -7 6 -16 11 -20 4 -4 5 -3 1 4 -3 6 2 16 11 22 16 9
16 10 -3 8 -12 0 -21 -7 -20 -14z"/>
<path d="M1090 1020 c-9 -6 -10 -10 -3 -10 6 0 15 5 18 10 8 12 4 12 -15 0z"/>
<path d="M1150 1005 c-7 -8 -9 -15 -5 -15 4 0 2 -7 -5 -15 -11 -13 -10 -14 4
-9 10 4 15 12 12 19 -2 7 1 18 7 24 6 6 8 11 5 11 -3 0 -11 -7 -18 -15z"/>
<path d="M1305 1009 c-4 -6 -5 -12 -2 -15 2 -3 7 2 10 11 7 17 1 20 -8 4z"/>
<path d="M1393 1013 c4 -3 2 -12 -4 -19 -7 -8 -7 -14 1 -19 6 -4 9 -1 8 7 -2
7 3 12 11 10 12 -3 12 0 1 12 -7 9 -15 16 -18 16 -3 0 -2 -3 1 -7z"/>
<path d="M1663 1004 c-3 -10 -13 -14 -25 -10 -20 5 -20 4 -2 -13 12 -11 20
-14 23 -7 2 6 8 19 13 29 5 9 6 17 3 17 -3 0 -8 -7 -12 -16z"/>
<path d="M1563 1004 c4 -4 1 -14 -6 -22 -10 -13 -9 -14 1 -8 7 4 14 1 18 -8 3
-8 13 -17 22 -21 12 -4 10 1 -6 18 -17 17 -20 26 -11 29 8 3 6 7 -6 12 -11 4
-16 4 -12 0z"/>
<path d="M1239 973 c-13 -15 -12 -15 9 -4 23 12 28 21 13 21 -5 0 -15 -7 -22
-17z"/>
<path d="M1510 975 c-7 -9 -10 -18 -7 -22 4 -3 9 2 13 11 3 9 11 13 17 9 6 -3
7 -1 3 5 -9 15 -11 15 -26 -3z"/>
<path d="M1174 969 c-5 -8 -3 -9 6 -4 10 6 12 4 7 -8 -3 -10 -2 -17 3 -17 13
0 13 27 1 35 -5 3 -13 0 -17 -6z"/>
<path d="M1677 973 c-10 -9 -9 -23 1 -23 5 0 9 7 9 15 0 17 -1 18 -10 8z"/>
<path d="M1277 955 c-4 -8 -3 -14 1 -14 22 4 23 -4 2 -26 -19 -20 -21 -28 -11
-38 10 -9 11 -8 5 7 -6 15 -4 17 7 11 8 -4 11 -4 6 0 -4 5 -1 15 7 24 12 13
12 19 1 34 -11 15 -13 15 -18 2z"/>
<path d="M1355 960 c3 -5 11 -10 16 -10 6 0 7 5 4 10 -3 6 -11 10 -16 10 -6 0
-7 -4 -4 -10z"/>
<path d="M1436 962 c-3 -5 1 -9 9 -9 8 0 12 4 9 9 -3 4 -7 8 -9 8 -2 0 -6 -4
-9 -8z"/>
<path d="M1099 958 c-1 -2 -3 -13 -4 -24 -2 -25 26 -27 33 -3 3 12 2 12 -6 0
-11 -15 -27 2 -17 19 3 6 4 10 1 10 -3 0 -7 -1 -7 -2z"/>
<path d="M1385 940 c-16 -17 -16 -20 -3 -15 9 4 19 13 22 21 7 19 2 18 -19 -6z"/>
<path d="M1146 942 c-3 -5 1 -9 9 -9 8 0 12 4 9 9 -3 4 -7 8 -9 8 -2 0 -6 -4
-9 -8z"/>
<path d="M1225 939 c-3 -4 2 -6 10 -5 21 3 28 13 10 13 -9 0 -18 -4 -20 -8z"/>
<path d="M1450 931 c0 -5 9 -7 20 -4 11 3 20 7 20 9 0 2 -9 4 -20 4 -11 0 -20
-4 -20 -9z"/>
<path d="M1670 930 c0 -5 5 -10 10 -10 6 0 10 5 10 10 0 6 -4 10 -10 10 -5 0
-10 -4 -10 -10z"/>
<path d="M1345 920 c-3 -5 -1 -10 4 -10 6 0 11 5 11 10 0 6 -2 10 -4 10 -3 0
-8 -4 -11 -10z"/>
<path d="M1516 922 c-3 -5 1 -9 9 -9 8 0 12 4 9 9 -3 4 -7 8 -9 8 -2 0 -6 -4
-9 -8z"/>
<path d="M1567 919 c7 -7 15 -10 18 -7 3 3 -2 9 -12 12 -14 6 -15 5 -6 -5z"/>
<path d="M1390 916 c0 -2 7 -7 16 -10 8 -3 12 -2 9 4 -6 10 -25 14 -25 6z"/>
<path d="M1308 903 c7 -3 16 -2 19 1 4 3 -2 6 -13 5 -11 0 -14 -3 -6 -6z"/>
<path d="M1433 892 c-9 -15 -8 -19 2 -19 8 0 13 5 12 11 -1 6 4 10 11 8 8 -1
11 2 7 8 -9 15 -19 12 -32 -8z"/>
<path d="M1543 895 c-3 -9 -3 -19 1 -22 3 -4 6 1 6 11 0 10 5 14 12 10 7 -4 8
-3 4 4 -10 16 -15 15 -23 -3z"/>
<path d="M1655 899 c-6 -8 -4 -10 5 -4 10 6 12 4 6 -11 -6 -15 -5 -17 5 -6 9
9 10 15 2 23 -8 8 -13 7 -18 -2z"/>
<path d="M1150 891 c0 -5 5 -13 10 -16 6 -3 10 -2 10 4 0 5 -4 13 -10 16 -5 3
-10 2 -10 -4z"/>
<path d="M1328 889 c-6 -4 -15 -6 -18 -4 -3 2 -6 -5 -6 -15 0 -18 1 -18 19 1
10 11 22 17 27 14 5 -3 11 -2 14 3 6 11 -19 11 -36 1z"/>
<path d="M1623 872 c0 -12 3 -19 6 -17 2 3 11 -1 20 -7 10 -8 8 -3 -4 12 -11
14 -21 27 -22 29 -1 2 -1 -6 0 -17z"/>
<path d="M1110 866 c0 -2 8 -10 18 -17 15 -13 16 -12 3 4 -13 16 -21 21 -21
13z"/>
<path d="M1232 855 c-11 -12 -10 -15 3 -15 8 0 15 7 15 15 0 18 -2 18 -18 0z"/>
<path d="M1533 847 c-18 -12 -33 -26 -33 -31 0 -6 5 -5 12 2 13 13 29 16 26 5
-3 -16 15 -63 22 -58 12 7 6 35 -9 44 -18 12 -18 17 3 40 24 26 20 26 -21 -2z"/>
<path d="M1142 832 c-11 -25 -11 -25 4 -10 9 9 15 21 13 27 -2 6 -10 -2 -17
-17z"/>
<path d="M1170 846 c0 -8 4 -17 9 -20 5 -4 7 3 4 14 -6 23 -13 26 -13 6z"/>
<path d="M1195 851 c-3 -5 -2 -12 3 -15 5 -3 9 1 9 9 0 17 -3 19 -12 6z"/>
<path d="M1385 850 c-3 -5 1 -10 10 -10 9 0 13 5 10 10 -3 6 -8 10 -10 10 -2
0 -7 -4 -10 -10z"/>
<path d="M1485 850 c3 -6 1 -10 -6 -10 -7 0 -10 -3 -6 -6 3 -3 13 -2 22 4 16
8 16 9 1 15 -10 4 -15 3 -11 -3z"/>
<path d="M1358 833 c6 -2 10 -8 8 -12 -3 -4 1 -8 9 -8 11 0 12 4 4 14 -6 7
-17 13 -23 12 -7 0 -6 -2 2 -6z"/>
<path d="M1200 804 c0 -8 5 -12 10 -9 6 4 8 11 5 16 -9 14 -15 11 -15 -7z"/>
<path d="M1236 808 c7 -10 34 -10 34 0 0 4 -9 8 -19 8 -11 0 -17 -4 -15 -8z"/>
<path d="M1423 808 c-3 -5 -2 -12 1 -15 3 -4 6 -1 6 5 0 6 13 9 30 7 17 -2 30
-1 30 4 0 10 -60 9 -67 -1z"/>
<path d="M1282 795 c-8 -10 -9 -15 -2 -15 6 0 8 -4 5 -10 -4 -6 1 -7 11 -3 10
4 13 8 7 10 -7 3 -9 11 -6 19 7 18 2 17 -15 -1z"/>
<path d="M1378 782 c-4 -13 -4 -21 -1 -18 4 3 12 1 20 -6 7 -6 16 -8 20 -4 3
3 0 6 -8 7 -9 0 -6 4 6 10 19 9 19 9 -2 5 -15 -2 -23 2 -25 13 -3 12 -6 10
-10 -7z"/>
<path d="M1230 780 c0 -5 6 -10 14 -10 8 0 17 -6 19 -12 4 -10 6 -10 6 -1 1 7
-8 17 -19 23 -14 7 -20 7 -20 0z"/>
<path d="M1525 770 c3 -5 8 -10 11 -10 2 0 4 5 4 10 0 6 -5 10 -11 10 -5 0 -7
-4 -4 -10z"/>
<path d="M1437 746 c-15 -22 -15 -23 6 -22 12 0 22 -5 23 -11 4 -35 5 -37 15
-20 9 15 7 22 -11 34 -12 8 -19 21 -16 29 8 21 0 17 -17 -10z"/>
<path d="M1475 750 c-3 -5 -1 -10 4 -10 6 0 11 5 11 10 0 6 -2 10 -4 10 -3 0
-8 -4 -11 -10z"/>
<path d="M1500 749 c0 -5 5 -7 10 -4 6 3 10 8 10 11 0 2 -4 4 -10 4 -5 0 -10
-5 -10 -11z"/>
<path d="M1327 743 c-11 -11 -8 -20 7 -20 8 0 12 6 9 14 -6 15 -7 15 -16 6z"/>
<path d="M1215 720 c3 -5 8 -10 11 -10 2 0 4 5 4 10 0 6 -5 10 -11 10 -5 0 -7
-4 -4 -10z"/>
<path d="M1320 703 c0 -6 8 -17 18 -24 16 -13 16 -13 2 6 -8 11 -16 22 -17 24
-2 2 -3 0 -3 -6z"/>
<path d="M1385 700 c-4 -6 -11 -7 -17 -4 -7 4 -8 2 -4 -5 6 -9 11 -9 22 0 14
11 18 19 10 19 -3 0 -8 -5 -11 -10z"/>
<path d="M1295 690 c-5 -8 -10 -21 -12 -29 -1 -11 2 -11 14 2 8 8 13 21 11 28
-3 10 -6 10 -13 -1z"/>
<path d="M1453 672 c0 -12 5 -22 9 -22 11 0 10 12 -2 30 -7 12 -9 10 -7 -8z"/>
<path d="M1360 666 c0 -2 8 -10 18 -17 15 -13 16 -12 3 4 -13 16 -21 21 -21
13z"/>
<path d="M1320 610 c0 -6 -4 -8 -10 -5 -6 3 -7 -1 -4 -10 4 -9 9 -12 13 -8 3
4 10 11 15 14 4 4 3 10 -3 13 -6 4 -11 2 -11 -4z"/>
<path d="M1283 569 c-2 -23 3 -25 10 -4 4 8 3 16 -1 19 -4 3 -9 -4 -9 -15z"/>
<path d="M1305 550 c-3 -5 -1 -10 4 -10 6 0 11 5 11 10 0 6 -2 10 -4 10 -3 0
-8 -4 -11 -10z"/>
<path d="M1496 532 c2 -3 -1 -11 -8 -19 -6 -7 -8 -16 -4 -20 3 -3 6 -1 6 7 0
10 3 10 14 1 11 -10 14 -9 12 4 -1 8 -7 19 -13 24 -5 5 -8 6 -7 3z"/>
<path d="M1298 523 c6 -2 10 -8 8 -12 -3 -4 1 -8 9 -8 11 0 12 4 4 14 -6 7
-17 13 -23 12 -7 0 -6 -2 2 -6z"/>
<path d="M1295 480 c-3 -6 1 -7 9 -4 18 7 21 14 7 14 -6 0 -13 -4 -16 -10z"/>
<path d="M1505 449 c-4 -6 -5 -12 -2 -15 2 -3 7 2 10 11 7 17 1 20 -8 4z"/>
<path d="M1304 432 c3 -5 0 -13 -6 -15 -8 -3 -6 -6 5 -6 19 -1 23 14 5 25 -6
4 -8 3 -4 -4z"/>
<path d="M1484 411 c4 -5 0 -11 -6 -14 -7 -3 -3 -4 9 -4 17 1 19 4 11 14 -12
15 -22 18 -14 4z"/>
</g>
</svg>
